inDegrees=no
num_controls=7
num_derivatives=13
num_iterations=400
num_multipliers=7
num_parameters=0
num_slacks=7
num_states=26
objective=4.004674
objective_accelerations=0.536436
objective_balance=0.105825
objective_effort=0.467202
objective_height=2.853963
objective_ligament=0.041249
solver_duration=6836.297259
status=Solve_Succeeded
success=true
DataType=double
version=3
OpenSimVersion=4.4-2022-07-23-0e9fedc
endheader
time	/jointset/ground_pelvis/pelvis_tilt/value	/jointset/ground_pelvis/pelvis_tx/value	/jointset/ground_pelvis/pelvis_ty/value	/jointset/hip_l/hip_flexion_l/value	/jointset/hip_l/hip_adduction_l/value	/jointset/hip_l/hip_rotation_l/value	/jointset/back/lumbar_extension/value	/jointset/patellofemoral_l/patellar_flexion_l/value	/jointset/knee_l/knee_flexion_l/value	/jointset/knee_l/knee_adduction_l/value	/jointset/knee_l/knee_rotation_l/value	/jointset/ankle_l/ankle_angle_l/value	/jointset/subtalar_l/subtalar_angle_l/value	/jointset/ground_pelvis/pelvis_tilt/speed	/jointset/ground_pelvis/pelvis_tx/speed	/jointset/ground_pelvis/pelvis_ty/speed	/jointset/hip_l/hip_flexion_l/speed	/jointset/hip_l/hip_adduction_l/speed	/jointset/hip_l/hip_rotation_l/speed	/jointset/back/lumbar_extension/speed	/jointset/patellofemoral_l/patellar_flexion_l/speed	/jointset/knee_l/knee_flexion_l/speed	/jointset/knee_l/knee_adduction_l/speed	/jointset/knee_l/knee_rotation_l/speed	/jointset/ankle_l/ankle_angle_l/speed	/jointset/subtalar_l/subtalar_angle_l/speed	/forceset/tau_hip_flexion_l	/forceset/tau_hip_adduction_l	/forceset/tau_hip_rotation_l	/forceset/tau_knee_flexion_l	/forceset/tau_ankle_angle_l	/forceset/tau_subtalar_angle_l	/forceset/tau_lumbar_extension	lambda_cid13_p0	lambda_cid13_p1	lambda_cid13_p2	lambda_cid13_p3	lambda_cid13_p4	lambda_cid13_p5	lambda_cid14_p0	/jointset/ground_pelvis/pelvis_tilt/accel	/jointset/ground_pelvis/pelvis_tx/accel	/jointset/ground_pelvis/pelvis_ty/accel	/jointset/hip_l/hip_flexion_l/accel	/jointset/hip_l/hip_adduction_l/accel	/jointset/hip_l/hip_rotation_l/accel	/jointset/back/lumbar_extension/accel	/jointset/patellofemoral_l/patellar_flexion_l/accel	/jointset/knee_l/knee_flexion_l/accel	/jointset/knee_l/knee_adduction_l/accel	/jointset/knee_l/knee_rotation_l/accel	/jointset/ankle_l/ankle_angle_l/accel	/jointset/subtalar_l/subtalar_angle_l/accel	gamma_cid13_p0	gamma_cid13_p1	gamma_cid13_p2	gamma_cid13_p3	gamma_cid13_p4	gamma_cid13_p5	gamma_cid14_p0
0	-0.1589115940199798	0.05810561836994509	0.897961707879275	0.3774920279260975	-0.2596915722673815	-0.2627931212369665	-0.0126506700172305	0.03223623128434819	0.03223623128433527	-0.1744509942947579	0.1648121094118738	-0.04231376238535053	-0.00993521180876984	0	0	0	0	0	0	0	0	0	0	0	0	0	0.1654289189746528	-0.1062012511433414	-0.05625187260046988	-0.3534012431647611	0.4029296868423505	-0.04280315613205196	-0.1008776704322751	88.36457572675795	-1.681033462223185	5.346564524938288	-42.1233319524171	-585.8653886194884	-83.36456987621722	-38.77338112749151	-3.314542958617495	-1.402071749820191	-1.089383858582607	13.51327168223636	-0.7603360213449271	4.79408242682834	-5.778448342728652	13.93645366713982	13.93645366713979	2.277253604887196	0.03615946140182211	4.619071177681282	0.2491919516540533	-2.039725185940321e-08	6.89411137372836e-07	-1.281760368001225e-07	5.166884023004479e-08	1.095260708594066e-07	2.364177777090999e-07	7.560128821722998e-08
0.01	-0.1590704562724708	0.05803637260698401	0.8979085311228897	0.3781509811132855	-0.2597295951395256	-0.2625518677740928	-0.01294076581808964	0.03291836415411035	0.03291836415415847	-0.1743403743148626	0.1648076028516856	-0.04208800439742755	-0.009923967184863772	-0.03159532147830628	-0.01379551365446604	-0.01061055791344366	0.1311621152956989	-0.007628700298369019	0.04796403529258694	-0.05760742532328826	0.1358243619911675	0.1358243619911622	0.02186443848977008	-0.0008389750312192646	0.04491726459760269	0.00217231243085145	0.1582326966050496	-0.1112443306819682	-0.05464293599719006	-0.3437108792629809	0.3875296128390622	-0.03190924210161141	-0.09527609390522861	83.77947118838675	-5.461559987117337	5.780361367111097	-39.3448123034138	-586.8730751686267	-90.22279860618259	-38.79231824955596	-3.055465462223166	-1.360234999635274	-1.043150848001627	12.82339631089581	-0.7678471623819115	4.754614635475154	-5.690129399686461	13.31508055061323	13.3150805506126	2.102202588288454	-0.1345132697310199	4.392908499219856	0.1896664939817776	-6.556875010686957e-08	6.978506503161773e-07	1.344190299446431e-08	9.330615369604244e-08	-1.176833387405427e-07	1.601740870956782e-07	6.092692535830107e-08
0.02	-0.1595399594837091	0.0578307829422028	0.8977499969693145	0.3801026984249729	-0.2598446470403019	-0.2618395638472444	-0.01379458382667907	0.03494067126090114	0.03494067126089954	-0.1740188772263458	0.1647965890842079	-0.04142010288384069	-0.009893316315612593	-0.06212819174791721	-0.02726878036402875	-0.02107147943798336	0.2585528248978362	-0.01540580572864155	0.09421009278522105	-0.1127444415488382	0.268034847402644	0.2680348474026328	0.04217542167017639	-0.00130144143632284	0.08842870513199855	0.003881249068938632	0.1510364742353544	-0.1162874102207973	-0.05303399939437346	-0.3340205153614902	0.3721295388355486	-0.02101532807141166	-0.08967451737796914	79.31527501973817	-9.255095866259266	6.20692255380356	-36.86750486223965	-586.1250597327894	-96.87673740496243	-38.84833264714934	-3.102052716878122	-1.337622360839813	-1.059456580801826	12.75899054352415	-0.7900170477256813	4.450486866837745	-5.284366523180854	13.21367835120169	13.21367835120154	1.966562543014369	0.1114611866250064	4.337906365039576	0.1565167931010754	-1.107402483543359e-07	7.062901632595187e-07	1.550598427890511e-07	1.349434671620401e-07	-3.44892748340492e-07	8.393039648225643e-08	4.625256249937216e-08
0.03	-0.1603097920018245	0.05749214380166372	0.8974872497480064	0.3833100724524605	-0.2600373481343971	-0.2606746262767762	-0.01518718219610752	0.03826738650021629	0.03826738650020082	-0.173501119065698	0.1647837646223715	-0.04032383267592842	-0.00984702358979455	-0.09165900414658316	-0.04039693954693382	-0.03148016089697618	0.3823006359920751	-0.02307078520101156	0.1384938267834249	-0.1653749486765434	0.3966956574249637	0.3966956574249528	0.06122369099192141	-0.001240632408812559	0.130610968733792	0.005386037857287049	0.1435603450121024	-0.1089312322475816	-0.05152729794670213	-0.3250879255172414	0.360194051945872	-0.02239533570064406	-0.08388180932725003	75.44894185391439	-8.123721039102708	6.192090443484855	-34.45552027545627	-585.7297057835425	-93.28828460727321	-38.93941114346485	-2.85170550967695	-1.291069311360539	-1.031973236039257	12.08946061104162	-0.7453159912321812	4.374779572061656	-5.192350258028048	12.60039168148869	12.60039168148874	1.851215029183654	-0.04317013349671962	4.12623446520427	0.1486435639790609	-1.34197760458783e-07	6.529273313936866e-07	2.337727010887798e-07	1.595365411071597e-07	-5.100537490416412e-07	3.560924190913233e-08	3.376163892445405e-08
0.04	-0.1613695546455965	0.05702409174642553	0.8971203358505903	0.387736281434591	-0.2603048145420659	-0.259075358785175	-0.01709407712691517	0.04286233171049784	0.04286233171049311	-0.172797427031349	0.1647722360719647	-0.03881217021050785	-0.009785446247637648	-0.1201142168778794	-0.05315136330385307	-0.04190481465961778	0.5023198158329966	-0.03035886844296918	0.1810760770116264	-0.2156037538227181	0.5216808415969523	0.5216808415969427	0.07936219641084069	-0.001042259153729129	0.1715071566337907	0.006938172336733304	0.1360842157886576	-0.1015750542743362	-0.05002059649899455	-0.3161553356729929	0.3482585650562302	-0.02377534332983973	-0.07808910127674472	71.69223282886028	-7.000669392177553	6.166176256052827	-32.32453385392812	-583.7554510943647	-89.51035438762172	-39.06289776045278	-2.886932783403908	-1.262875275642935	-1.062651041531589	12.01326429286074	-0.7146378016431861	4.110190112837246	-4.804026126874637	12.47855318113557	12.47855318113561	1.784609762449258	0.1389740321396744	4.080691224680295	0.1659859313205758	-1.572075615087349e-07	5.982902243771497e-07	3.111885473989238e-07	1.837781874332922e-07	-6.739354011057018e-07	-1.213619027140831e-08	2.131573471621657e-08
0.05	-0.1627090329214583	0.05643038783233995	0.8966487221117155	0.3933450713488799	-0.2606431299566946	-0.2570599369850515	-0.01949100261755242	0.04868960966128271	0.04868960966127842	-0.1719171005182362	0.1647645456415514	-0.03689772527668642	-0.009707937403034826	-0.1476055439884423	-0.06552204608456245	-0.05244635640749619	0.6188247532625862	-0.03721675202169947	0.2217205280081638	-0.2634086204309252	0.6431621927157308	0.6431621927157203	0.09655071492472361	-0.0004897052246218527	0.2111703131623407	0.008592816581973613	0.1286079801489591	-0.09764015061507832	-0.04849341052305517	-0.3082302425159416	0.3363904425289133	-0.02157599689580636	-0.07232290688472347	68.0776102366835	-7.353312681585294	6.257074284106841	-30.28826235504502	-582.102634748209	-88.73633606868187	-39.21540974404616	-2.65384961226145	-1.214021814305203	-1.054305346646141	11.37708091663997	-0.6583603940023485	3.998380706253175	-4.712808346365089	11.89103853815303	11.89103853815273	1.663246510301011	0.01429723528392205	3.877402240427929	0.1694586347161623	-1.671035850251046e-07	4.581200506534132e-07	3.725323528169394e-07	1.902718905697579e-07	-7.755175372588393e-07	-7.767352508018007e-08	3.175940195177427e-09
0.06	-0.1643181478558999	0.055715005683442	0.8960708130343172	0.4001005051271841	-0.2610474235587131	-0.2546467090523271	-0.02235479505798495	0.05571332361544565	0.05571332361544637	-0.170869434097096	0.1647625609828197	-0.03459299390288245	-0.009613031123261735	-0.1740415485941731	-0.07748701026632637	-0.06316388236432004	0.7316485886374221	-0.04355450592101645	0.2606373035323516	-0.3089771437819491	0.7609680422706799	0.7609680422706686	0.1128301780163393	9.889518399634338e-05	0.2495644446303185	0.01041765937083069	0.1211317445092594	-0.09370524695580729	-0.04696622454714665	-0.300305149358829	0.324522320001633	-0.01937665046175147	-0.06655671249274053	64.55851286946903	-7.715163996219569	6.340859109510345	-28.50402270601726	-579.0768496107029	-87.80285070922338	-39.39314346386151	-2.675868282437285	-1.181731555854143	-1.097847883320685	11.27704388191003	-0.6106118657604864	3.764655018367304	-4.356757475437932	11.74345286836977	11.74345286836987	1.602798677995873	0.1461833280418974	3.826886212565526	0.2000256400438756	-1.764474494874287e-07	3.143484846472684e-07	4.331994407237075e-07	1.960183118877113e-07	-8.744765358999378e-07	-1.439599926311931e-07	-1.52035970758744e-08
0.07000000000000001	-0.1661869452721561	0.05488203159215473	0.8953845356212659	0.4079669661174289	-0.2615123504396306	-0.2518539471911846	-0.02566263429310585	0.06389774528326066	0.06389774528324535	-0.1696634923190406	0.1647677776253917	-0.03191030958562301	-0.009498815307514322	-0.1995448914527506	-0.0890338040237058	-0.07413973051209259	0.8410374521415235	-0.04932089590981948	0.297628083015781	-0.3522306534780641	0.8753067287480099	0.8753067287480112	0.1282209885570247	0.0009359900216242583	0.2867680118517664	0.01247671676814176	0.1135692530828013	-0.08903736725344556	-0.0454821721460545	-0.2932204140098178	0.313516405465088	-0.01778730463696791	-0.06073098763449485	61.26257023782123	-7.853322411094857	6.391440764730519	-26.78686503136255	-576.4904180773345	-86.37361049724998	-39.59172671257333	-2.461606572471505	-1.130013418111772	-1.104848915264423	10.67887012017506	-0.5432403249782336	3.623180952753755	-4.255640251701085	11.18764541985882	11.18764541986071	1.48674223206751	0.05115111829375418	3.636430194828441	0.2164310618775777	-1.757497564835708e-07	1.037764984491611e-07	4.799445296474704e-07	1.86778184687905e-07	-9.193441328562092e-07	-2.253983184545614e-07	-3.789448817234524e-08
0.08	-0.1683055839739775	0.05393581753680638	0.894587020599786	0.4169091282498072	-0.2620316587723384	-0.2486998992273091	-0.02939220713218644	0.07320726759231516	0.073207267592312	-0.1683077384375587	0.164781100927684	-0.02886172195256962	-0.009362491863333565	-0.2240098057074365	-0.1001350030785392	-0.08541140405000019	0.9467888170662262	-0.05443079628012693	0.3328945240761278	-0.3933238645742548	0.9859881705231117	0.9859881705231291	0.142792598696207	0.001720227126072064	0.3227451077889747	0.01483918505756283	0.1060067616562077	-0.08436948755116881	-0.04399811974484079	-0.2861356786609252	0.3025104909284837	-0.0161979588122823	-0.054905262776297	58.04867005109691	-7.99810356286914	6.434238605891839	-25.29129111381537	-572.732245881856	-84.80964261426188	-39.80649603784654	-2.468182561658752	-1.092612615345241	-1.157012961347707	10.54954416603037	-0.4793139420613323	3.419787333750757	-3.924697755452986	11.01200392792422	11.01200392792503	1.438958597695333	0.1356117814059217	3.581591955717256	0.2607078184658297	-1.744042210625398e-07	-1.111051922774595e-07	5.257914250884586e-07	1.765711833901788e-07	-9.607219619618465e-07	-3.078141835213073e-07	-6.086353112852051e-08
0.09	-0.1706643158376067	0.05288082547638807	0.8936750383609317	0.4268918689243578	-0.2625988300050603	-0.2452027006082715	-0.03352149646622721	0.08360638262076039	0.08360638262073397	-0.1668105194218562	0.1648031287198996	-0.02545919255884644	-0.009200998342473815	-0.2475689145254026	-0.1107849348768544	-0.09704852145847592	1.049163109577918	-0.05888667483657925	0.3662607065645298	-0.4321922036055814	1.093229304181713	1.093229304181713	0.1565134066171376	0.002667693502470694	0.3575572125276445	0.01751768905798915	0.09848463571470104	-0.07993796134223052	-0.0425876127727148	-0.2799476757199433	0.2922228100713037	-0.01435121905953326	-0.04911476404989591	55.04334238296729	-8.272676929143088	6.476578808730099	-23.85670859322746	-569.4496309252037	-83.50749582170265	-40.03238755696467	-2.274618045790316	-1.039377194436115	-1.176775604396966	9.991930313395869	-0.4112399899286619	3.252265742416411	-3.816632182379008	10.48935098120628	10.48935098120306	1.318010508443739	0.07157343099554855	3.400481158901881	0.2801075818301829	-1.681729407910165e-07	-3.863981666005432e-07	5.717804631774447e-07	1.545996823813093e-07	-9.673897003593598e-07	-4.125224626349369e-07	-8.926231473123e-08
